# xmcd CD database file
#
# Track frame offsets:
#	150
#	62466
#	131882
#	213556
#	281348
#
# Disc length: 4699 seconds
#
# Revision: 1
# Processed by: cddbd v1.5.2PL0 Copyright (c) Steve Scherf et al.
# Submitted via: CDex 1.70beta2
#
DISCID=49125905
DTITLE=Robert Louis Stevenson - Die Schatzinsel [CD 2)
DYEAR=2005
DGENRE=Hörbuch
TTITLE0=Jims Plan
TTITLE1=Kampf um die "Hispaniola"
TTITLE2=Kapitän Silver
TTITLE3=Schatzsuche
TTITLE4=Das Ende des Abenteuers
EXTD=YEAR: 2005
EXTT0=
EXTT1=
EXTT2=
EXTT3=
EXTT4=
PLAYORDER=
